<?xml version="1.0" standalone="no"?>
<!DOCTYPE svg PUBLIC "-//W3C//DTD SVG 20010904//EN"
 "http://www.w3.org/TR/2001/REC-SVG-20010904/DTD/svg10.dtd">
<svg version="1.0" xmlns="http://www.w3.org/2000/svg"
 width="1080.000000pt" height="1065.000000pt" viewBox="0 0 1080.000000 1065.000000"
 preserveAspectRatio="xMidYMid meet">

<g transform="translate(0.000000,1065.000000) scale(0.100000,-0.100000)"
fill="#000000" stroke="none">
<path d="M0 5325 l0 -5325 5400 0 5400 0 0 5325 0 5325 -5400 0 -5400 0 0
-5325z m5891 4954 c30 -6 101 -17 159 -24 58 -8 143 -19 190 -25 47 -7 89 -16
95 -21 5 -5 24 -9 42 -9 18 0 52 -6 75 -13 24 -8 79 -22 123 -32 78 -17 149
-36 210 -57 17 -5 46 -14 65 -18 19 -4 60 -18 90 -30 30 -12 71 -26 90 -31 19
-6 44 -14 55 -18 11 -5 43 -17 70 -26 28 -10 70 -26 95 -38 25 -11 54 -23 65
-28 130 -52 479 -225 496 -245 6 -8 15 -14 20 -14 9 0 111 -57 164 -91 17 -10
37 -22 45 -26 8 -3 17 -9 20 -13 11 -13 119 -80 129 -80 6 0 11 -4 11 -9 0 -5
17 -20 38 -32 151 -91 521 -408 737 -630 94 -97 135 -142 245 -269 29 -34 155
-193 165 -209 6 -9 24 -34 41 -56 35 -46 174 -254 174 -260 0 -3 20 -34 45
-71 25 -36 45 -72 45 -79 0 -8 6 -18 13 -22 7 -4 24 -28 36 -53 13 -25 44 -83
69 -130 78 -148 132 -261 132 -279 0 -5 3 -11 8 -13 4 -1 18 -30 30 -63 13
-33 28 -69 33 -80 18 -41 106 -282 123 -340 10 -33 22 -67 27 -76 4 -9 11 -34
15 -55 3 -22 10 -43 14 -49 5 -5 12 -28 16 -50 4 -22 13 -54 21 -72 7 -18 13
-47 13 -65 1 -18 7 -44 15 -58 8 -14 14 -41 15 -61 0 -20 7 -50 15 -65 8 -16
15 -51 15 -79 0 -27 7 -72 15 -99 8 -27 15 -75 15 -107 0 -32 5 -70 11 -86 23
-57 47 -568 38 -788 -11 -245 -28 -460 -39 -490 -5 -14 -10 -51 -10 -82 0 -31
-6 -79 -14 -107 -8 -28 -19 -80 -25 -116 -21 -123 -32 -173 -41 -191 -6 -10
-10 -32 -10 -49 0 -17 -7 -47 -15 -67 -8 -19 -15 -48 -15 -62 0 -15 -7 -36
-15 -47 -8 -10 -15 -26 -15 -35 0 -21 -27 -113 -44 -154 -7 -16 -26 -68 -41
-115 -27 -86 -68 -191 -85 -222 -6 -10 -10 -22 -10 -28 0 -5 -16 -45 -36 -87
-19 -43 -42 -94 -50 -113 -8 -19 -19 -42 -24 -50 -5 -8 -34 -64 -65 -125 -30
-60 -64 -123 -75 -140 -10 -16 -30 -52 -45 -80 -32 -62 -43 -81 -77 -126 -16
-20 -28 -40 -28 -43 0 -12 -113 -180 -168 -251 -4 -5 -56 -73 -114 -150 -59
-77 -126 -161 -150 -186 -24 -26 -54 -60 -67 -75 -68 -82 -345 -355 -435 -429
-26 -22 -66 -57 -87 -78 -21 -20 -42 -37 -47 -37 -4 0 -18 -10 -32 -23 -14
-13 -74 -60 -135 -105 -60 -45 -115 -86 -122 -92 -7 -5 -16 -10 -20 -10 -4 -1
-24 -14 -43 -30 -19 -17 -37 -30 -41 -30 -4 0 -48 -27 -98 -60 -50 -33 -94
-60 -98 -60 -3 0 -14 -6 -22 -14 -18 -15 -103 -62 -206 -114 -38 -20 -71 -40
-73 -44 -2 -4 -9 -8 -16 -8 -7 0 -55 -21 -107 -47 -53 -27 -111 -54 -130 -62
-42 -17 -117 -49 -144 -61 -32 -15 -178 -68 -205 -75 -14 -3 -38 -12 -55 -19
-54 -24 -114 -43 -205 -66 -25 -6 -53 -16 -64 -21 -10 -6 -39 -15 -65 -20 -25
-5 -78 -15 -117 -22 -39 -8 -77 -17 -83 -21 -13 -8 -71 -19 -191 -37 -41 -5
-91 -15 -110 -21 -19 -7 -75 -15 -125 -20 -49 -4 -115 -12 -145 -17 -30 -5
-262 -10 -515 -10 -370 -1 -474 2 -530 14 -38 8 -94 15 -124 15 -30 0 -80 6
-110 14 -60 15 -151 32 -241 44 -30 5 -71 13 -90 19 -19 7 -55 16 -80 21 -25
6 -70 17 -100 26 -30 8 -95 27 -145 40 -89 25 -252 78 -310 101 -16 7 -52 21
-80 31 -27 10 -61 24 -75 31 -14 7 -28 13 -33 13 -4 0 -59 24 -122 54 -62 30
-124 57 -137 61 -13 4 -30 13 -38 19 -8 7 -60 35 -115 62 -55 27 -102 52 -105
55 -3 4 -15 9 -27 13 -13 4 -23 11 -23 16 0 4 -12 13 -27 19 -31 12 -31 12
-156 94 -49 31 -90 57 -93 57 -6 0 -64 41 -83 58 -8 8 -33 25 -55 40 -57 35
-210 152 -214 163 -2 5 -9 9 -15 9 -7 0 -32 19 -57 43 -25 23 -79 71 -120 106
-116 100 -363 346 -448 446 -42 50 -82 96 -89 104 -8 7 -40 48 -72 90 -32 42
-66 82 -75 90 -9 7 -16 18 -16 23 0 5 -5 14 -10 21 -44 51 -60 73 -60 79 0 4
-6 13 -12 20 -21 21 -68 86 -68 93 0 8 -43 69 -53 73 -4 2 -7 8 -7 13 0 6 -21
42 -47 82 -98 149 -282 508 -358 697 -10 25 -26 63 -35 85 -10 22 -32 81 -50
130 -18 50 -36 99 -40 110 -14 33 -41 118 -50 155 -24 96 -33 127 -43 145 -6
11 -14 43 -18 70 -9 58 -25 130 -45 199 -8 26 -14 64 -14 83 0 19 -5 43 -11
55 -6 11 -14 52 -19 92 -11 101 -29 238 -42 326 -6 41 -13 237 -16 435 -3 292
-1 382 11 475 15 106 23 169 47 365 4 39 13 81 18 95 5 14 13 55 16 92 4 37
12 70 17 73 5 4 9 17 9 30 0 14 12 68 26 122 14 54 29 116 34 139 5 22 13 51
19 65 5 13 12 41 16 62 3 20 10 37 15 37 4 0 11 19 15 43 4 23 11 47 15 52 4
6 15 37 25 70 18 60 47 135 65 167 6 10 10 23 10 29 0 7 9 30 19 53 11 23 26
57 34 76 54 128 160 343 177 360 3 3 16 28 30 55 14 28 30 56 37 63 7 7 13 17
13 22 0 8 46 86 90 155 8 12 33 51 54 86 22 35 66 99 98 141 32 42 58 80 58
85 0 4 13 22 28 38 15 17 56 67 89 111 34 45 68 88 75 95 7 8 38 43 68 79 30
35 72 81 93 101 20 20 37 41 37 47 0 6 4 12 9 14 6 2 70 62 143 133 73 72 163
155 198 185 36 30 67 57 70 60 16 16 170 140 175 140 3 0 16 10 28 23 29 29
83 67 97 67 5 0 10 4 10 8 0 6 86 69 148 107 10 6 36 23 59 38 24 15 45 27 48
27 3 0 14 8 25 18 11 10 48 33 82 51 35 19 65 37 68 40 8 10 48 31 240 127
195 97 219 108 315 145 33 13 62 27 63 32 2 4 10 7 18 7 8 0 34 8 57 18 90 39
186 72 377 128 30 8 65 20 77 24 12 5 64 18 115 30 51 11 107 25 123 30 17 5
50 12 75 16 25 3 67 12 94 20 27 8 67 14 88 14 22 0 47 4 57 9 9 5 66 15 126
21 61 6 133 15 160 19 78 13 963 13 1026 0z"/>
<path d="M3807 8132 c-16 -17 -17 -106 -17 -1078 l0 -1060 -21 -18 c-41 -35
-84 -56 -115 -56 -41 0 -44 -12 -44 -167 0 -97 3 -125 16 -137 14 -14 186 -16
1746 -16 1637 0 1732 1 1744 18 16 21 19 253 4 283 -7 11 -26 21 -49 25 -22 3
-55 20 -75 36 l-36 29 0 1070 0 1069 -26 10 c-16 6 -590 10 -1568 10 -1482 0
-1544 -1 -1559 -18z m3067 -61 c8 -13 9 -1983 1 -2003 -7 -17 -88 -18 -1500
-18 -1411 0 -1493 1 -1500 17 -8 22 -8 1990 0 2004 8 12 2992 12 2999 0z m-16
-2100 c26 -23 28 -37 6 -45 -9 -3 -301 -6 -650 -6 l-634 0 -20 -40 -20 -40
-159 0 c-172 0 -181 3 -202 57 l-9 23 -644 0 c-437 0 -647 3 -651 10 -4 6 1
22 9 35 l16 25 1468 0 c1420 -1 1468 -1 1490 -19z m-1772 -117 c29 -5 34 -10
34 -35 0 -15 4 -30 10 -34 12 -7 477 -8 489 -1 4 3 11 19 14 34 5 27 10 30 61
36 73 8 1304 6 1336 -3 24 -7 25 -10 25 -86 l0 -80 -1680 0 -1680 0 -3 73 c-2
43 2 79 8 87 9 11 139 14 681 14 369 1 686 -1 705 -5z"/>
<path d="M4345 7788 c-3 -7 -4 -319 -3 -693 l3 -680 985 -3 c542 -1 995 0
1008 3 l22 5 -2 688 -3 687 -1003 3 c-797 2 -1004 0 -1007 -10z m1945 -74 c6
-14 8 -30 4 -35 -3 -5 -384 -9 -938 -9 -1001 0 -975 -1 -940 48 l15 22 925 0
924 0 10 -26z m-2 -136 c9 -9 12 -142 12 -538 0 -289 -4 -529 -8 -535 -4 -5
-14 -12 -22 -15 -8 -3 -425 -6 -926 -8 -767 -2 -913 0 -923 12 -8 10 -11 159
-11 545 0 293 2 537 5 542 10 15 1858 12 1873 -3z"/>
<path d="M3395 4976 c-5 -2 -50 -9 -100 -15 -97 -13 -183 -34 -228 -57 -16 -8
-35 -14 -43 -14 -8 0 -45 -16 -82 -37 -37 -20 -77 -42 -90 -48 -24 -13 -109
-84 -151 -126 -46 -46 -91 -97 -91 -103 0 -4 -10 -23 -23 -44 -62 -99 -84
-246 -49 -323 31 -67 86 -108 167 -123 52 -10 59 3 40 73 -12 42 -16 77 -11
113 4 29 9 76 12 103 3 28 11 64 19 80 33 76 60 131 69 144 32 42 167 172 187
181 13 5 31 14 39 18 47 27 84 42 98 42 9 0 30 7 46 15 21 11 63 15 165 15
158 0 207 -13 278 -76 69 -61 83 -98 83 -214 0 -55 -4 -108 -9 -118 -6 -9 -20
-39 -33 -66 -25 -54 -132 -176 -154 -176 -8 0 -14 -4 -14 -10 0 -5 -6 -10 -12
-10 -7 0 -25 -6 -39 -13 -41 -22 -103 -29 -124 -13 -16 11 -17 17 -6 47 7 19
17 59 21 89 12 75 30 158 42 198 5 18 14 59 19 90 4 31 13 74 18 96 l9 38 -31
-7 c-18 -3 -72 -11 -122 -16 -49 -5 -115 -15 -144 -22 -47 -11 -56 -17 -64
-43 -10 -34 -34 -147 -46 -221 -5 -28 -14 -66 -19 -85 -6 -18 -16 -60 -22 -93
-6 -33 -18 -89 -26 -125 -8 -36 -19 -88 -23 -116 -5 -29 -12 -63 -17 -75 -4
-13 -13 -53 -20 -89 -16 -82 -38 -185 -90 -420 -8 -36 -19 -90 -24 -120 -5
-30 -16 -75 -25 -99 -8 -24 -15 -61 -15 -82 l0 -39 159 0 c185 0 186 0 196 87
4 32 9 65 12 73 8 18 28 112 44 200 6 36 15 74 20 85 5 11 13 50 18 86 5 37
14 76 20 87 6 12 11 37 11 57 0 20 4 44 10 54 5 10 14 43 19 72 16 90 33 153
43 167 7 8 42 12 107 12 92 0 99 -1 146 -33 70 -46 100 -104 116 -229 10 -84
10 -113 -3 -196 -25 -154 -52 -216 -126 -289 l-53 -53 -70 0 c-71 0 -96 9
-146 54 -26 22 -31 19 -39 -15 -22 -108 -14 -160 35 -210 69 -71 282 -76 405
-10 58 31 122 87 170 150 46 61 100 168 111 218 3 18 11 35 16 38 5 4 9 21 9
39 0 18 7 55 15 82 20 66 19 221 -1 287 -41 132 -117 219 -215 244 -18 5 -37
17 -43 27 -9 15 -6 22 19 39 59 43 134 130 166 195 32 64 34 71 33 177 -1 136
-18 178 -102 256 -54 50 -83 68 -167 104 -45 19 -274 50 -300 41z"/>
<path d="M6050 4965 c-41 -8 -94 -14 -116 -14 -23 -1 -55 -8 -70 -16 -16 -8
-42 -15 -59 -15 -16 0 -39 -7 -49 -15 -11 -8 -32 -15 -48 -15 -15 0 -28 -4
-28 -10 0 -5 -18 -14 -40 -20 -21 -6 -42 -15 -45 -20 -3 -6 -13 -10 -20 -10
-12 0 -137 -79 -183 -115 -44 -35 -137 -137 -160 -175 -14 -25 -30 -46 -34
-48 -4 -2 -8 -9 -8 -15 0 -7 -8 -25 -17 -42 -12 -22 -16 -58 -17 -135 -1 -95
1 -108 22 -138 26 -35 86 -67 143 -75 38 -6 70 5 50 17 -15 9 -15 208 0 255
24 75 54 151 60 151 4 0 9 10 13 23 10 40 127 163 201 211 146 95 222 118 425
123 144 4 157 3 200 -18 98 -48 137 -110 165 -265 14 -79 16 -126 11 -210 -7
-114 -28 -288 -38 -314 -3 -8 -10 -37 -16 -65 -15 -72 -33 -135 -48 -172 -8
-17 -14 -38 -14 -46 0 -9 -4 -19 -10 -22 -5 -3 -10 -13 -10 -21 0 -8 -9 -36
-21 -62 -105 -241 -226 -387 -349 -421 -72 -20 -126 9 -172 93 -21 39 -22 52
-22 237 1 198 9 258 50 390 8 26 14 57 14 70 1 13 7 35 15 49 8 14 14 37 15
52 0 15 4 29 9 33 5 3 13 20 17 38 3 17 13 48 22 67 8 19 21 49 28 65 7 17 26
59 43 95 17 36 31 69 31 74 0 4 14 25 30 46 17 21 30 43 30 49 0 6 27 38 59
70 l59 59 -39 7 c-73 13 -179 -4 -244 -39 -52 -27 -215 -170 -215 -189 0 -3
-13 -25 -29 -49 -74 -110 -148 -287 -195 -468 -49 -187 -51 -200 -51 -416 0
-141 4 -219 12 -235 6 -13 23 -49 36 -79 40 -88 132 -165 228 -192 61 -17 272
-16 334 1 97 27 175 60 245 105 66 43 212 195 256 268 21 35 41 65 45 68 3 3
16 28 29 55 12 28 32 71 45 96 13 26 26 61 30 78 4 18 13 44 21 59 8 15 14 37
14 49 0 12 4 24 9 27 5 4 12 25 16 49 3 23 13 71 22 107 13 49 17 115 17 270
1 225 -5 257 -67 390 -31 65 -142 190 -170 190 -7 0 -18 5 -25 12 -21 21 -85
39 -202 59 -131 21 -138 22 -240 4z"/>
<path d="M7630 4964 c-52 -8 -110 -21 -128 -29 -18 -8 -40 -15 -48 -15 -9 0
-28 -6 -42 -14 -15 -8 -34 -17 -42 -21 -58 -23 -148 -91 -220 -164 -66 -66
-150 -178 -150 -198 0 -3 -6 -14 -13 -22 -7 -9 -21 -36 -31 -61 -10 -25 -24
-58 -31 -75 -42 -101 -60 -213 -59 -375 2 -259 37 -371 154 -490 61 -62 133
-110 164 -110 8 0 27 -7 42 -15 40 -21 251 -21 301 0 19 8 42 15 51 15 9 0 34
9 56 19 58 28 80 30 84 7 2 -10 -1 -28 -6 -40 -6 -11 -16 -48 -22 -81 -26
-142 -83 -388 -100 -430 -47 -120 -76 -162 -136 -194 -50 -27 -148 -29 -185
-3 -38 26 -69 60 -69 76 0 8 -4 17 -9 20 -5 3 -12 22 -16 42 -10 54 26 143 77
190 39 36 44 37 112 38 52 0 79 -5 102 -18 46 -28 64 -16 64 40 0 66 -48 144
-90 144 -9 0 -21 5 -26 10 -6 6 -43 14 -82 17 -59 5 -81 2 -131 -17 -79 -29
-144 -87 -179 -159 -24 -51 -27 -66 -26 -167 0 -93 4 -118 23 -156 27 -58 106
-132 168 -160 66 -29 214 -37 282 -14 27 9 59 16 70 16 11 0 51 14 88 32 134
63 239 203 308 410 15 45 21 72 50 208 26 122 36 165 51 216 8 28 14 62 14 76
0 14 7 42 15 61 8 20 15 55 15 77 0 23 5 51 11 62 6 11 15 44 19 72 5 28 13
69 19 91 30 122 41 177 41 209 l0 36 -68 0 c-38 0 -102 3 -143 6 l-75 7 -16
-54 c-9 -30 -19 -72 -23 -94 -3 -22 -10 -53 -15 -70 -5 -16 -16 -66 -25 -110
-33 -154 -35 -158 -81 -201 -36 -34 -54 -43 -114 -54 -148 -28 -268 34 -331
170 -51 109 -66 310 -34 433 8 32 15 68 15 80 0 12 7 35 15 51 8 15 15 35 15
44 0 31 126 273 165 319 5 6 27 32 49 57 42 51 147 136 168 136 7 0 22 7 32
15 28 21 179 21 200 0 8 -8 18 -15 23 -15 4 0 23 -21 41 -48 44 -66 45 -135 1
-228 -17 -36 -37 -68 -45 -71 -25 -9 -14 -38 22 -55 45 -23 166 -25 184 -3 7
8 19 15 26 15 8 0 14 7 14 15 0 7 6 18 14 22 28 16 40 185 18 259 -13 44 -82
130 -116 145 -12 5 -28 13 -36 17 -48 28 -71 35 -163 53 -117 22 -128 22 -257
3z"/>
<path d="M4910 4935 c-19 -7 -56 -14 -81 -14 -25 -1 -54 -8 -65 -16 -10 -8
-29 -15 -41 -15 -12 0 -34 -6 -50 -14 -151 -73 -188 -94 -236 -130 -127 -95
-185 -161 -243 -276 -35 -71 -37 -80 -38 -175 -1 -138 22 -178 124 -217 48
-19 110 -24 110 -9 0 5 -7 25 -15 44 -36 87 -9 267 63 417 40 82 120 162 227
227 64 39 75 31 68 -44 -2 -32 -11 -72 -19 -90 -8 -17 -14 -45 -14 -62 0 -18
-7 -48 -15 -68 -8 -19 -15 -54 -15 -77 -1 -22 -7 -52 -15 -66 -8 -14 -15 -43
-15 -65 0 -22 -7 -58 -15 -80 -8 -22 -14 -58 -15 -80 0 -23 -5 -46 -11 -52 -6
-6 -15 -37 -19 -69 -5 -33 -13 -78 -19 -101 -6 -24 -16 -62 -22 -85 -6 -24
-14 -68 -18 -98 -4 -30 -12 -65 -19 -77 -7 -12 -12 -44 -12 -70 0 -28 -6 -58
-15 -69 -8 -10 -15 -35 -15 -55 0 -20 -7 -56 -15 -79 -8 -23 -15 -59 -15 -79
-1 -20 -7 -47 -15 -61 -8 -14 -14 -42 -15 -63 0 -21 -7 -54 -15 -74 -26 -63
-22 -71 43 -76 63 -5 146 -22 177 -36 11 -5 45 -19 75 -31 30 -12 57 -26 60
-29 3 -4 34 -25 70 -46 36 -22 74 -47 84 -57 11 -10 38 -30 60 -45 23 -16 46
-33 51 -39 12 -12 226 -171 270 -199 87 -57 151 -85 191 -85 18 0 36 -4 39
-10 18 -29 141 8 181 53 16 18 28 34 27 37 -1 3 4 12 12 20 17 19 45 85 56
130 4 19 12 52 17 73 13 48 -3 57 -58 32 -31 -14 -60 -17 -154 -14 -74 3 -120
9 -128 17 -6 6 -23 12 -36 12 -13 0 -38 6 -55 14 -18 8 -54 24 -82 36 -69 29
-114 51 -155 76 -75 45 -242 126 -335 162 l-50 20 4 68 c2 38 10 81 17 96 8
15 14 43 14 63 0 20 7 52 15 72 8 19 15 50 15 68 0 18 7 49 15 68 8 20 15 52
15 72 0 20 7 52 15 72 8 19 15 54 15 77 1 22 7 52 15 66 8 14 14 40 15 59 0
18 6 54 14 80 15 46 29 112 45 206 5 28 14 63 20 78 6 16 11 47 11 70 0 23 7
55 15 71 8 15 15 42 15 58 0 16 6 50 14 76 16 53 33 131 46 211 5 29 13 65 19
80 5 14 11 50 14 79 l4 52 -86 -1 c-47 0 -102 -7 -121 -14z"/>
</g>
</svg>
